<svg width="11" height="22" viewBox="0 0 11 22" fill="none" xmlns="http://www.w3.org/2000/svg">
<path d="M0.343348 11.3378H2.67681V20.9442C2.67681 21.1339 2.83049 21.2876 3.02016 21.2876H6.97663C7.1663 21.2876 7.31998 21.1339 7.31998 20.9442V11.383H10.0025C10.1769 11.383 10.3237 11.2521 10.3436 11.0789L10.751 7.54226C10.7622 7.44496 10.7314 7.34752 10.6663 7.27452C10.6011 7.20146 10.5078 7.15964 10.41 7.15964H7.32012V4.9427C7.32012 4.27441 7.67995 3.93553 8.38972 3.93553C8.49087 3.93553 10.41 3.93553 10.41 3.93553C10.5996 3.93553 10.7533 3.78178 10.7533 3.59218V0.345889C10.7533 0.156223 10.5996 0.00254078 10.41 0.00254078H7.62577C7.60613 0.0015794 7.56252 0 7.49825 0C7.01515 0 5.33598 0.0948327 4.00955 1.31509C2.53988 2.66734 2.74418 4.28643 2.793 4.56715V7.15957H0.343348C0.153683 7.15957 0 7.31325 0 7.50292V10.9944C0 11.184 0.153683 11.3378 0.343348 11.3378Z" fill="white"/>
</svg>
