<svg width="22" height="22" viewBox="0 0 22 22" fill="none" xmlns="http://www.w3.org/2000/svg">
<path d="M6.69359 17.5872H3.78318V8.19073H6.69359V17.5872ZM6.98398 5.197C6.98398 4.25615 6.22065 3.4925 5.28029 3.4925C4.33635 3.4925 3.57497 4.25615 3.57497 5.197C3.57497 6.13818 4.33635 6.90184 5.28029 6.90184C6.22065 6.90184 6.98398 6.13818 6.98398 5.197ZM17.5865 12.4177C17.5865 9.89524 17.0537 8.02442 14.107 8.02442C12.6911 8.02442 11.7407 8.73254 11.3527 9.46891H11.3499V8.19073H8.52267V17.5872H11.3499V12.9218C11.3499 11.7 11.6609 10.5163 13.1754 10.5163C14.6693 10.5163 14.7177 11.9135 14.7177 12.9994V17.5872H17.5865V12.4177ZM21.3285 18.793V2.49464C21.3285 1.11901 20.2095 0 18.8338 0H2.53553C1.15991 0 0.0408936 1.11901 0.0408936 2.49464V18.793C0.0408936 20.1686 1.15991 21.2876 2.53553 21.2876H18.8338C20.2095 21.2876 21.3285 20.1686 21.3285 18.793ZM18.8338 1.66309C19.2923 1.66309 19.6654 2.03615 19.6654 2.49464V18.793C19.6654 19.2514 19.2923 19.6245 18.8338 19.6245H2.53553C2.07705 19.6245 1.70399 19.2514 1.70399 18.793V2.49464C1.70399 2.03615 2.07705 1.66309 2.53553 1.66309H18.8338Z" fill="white"/>
</svg>
