<svg width="23" height="18" viewBox="0 0 23 18" fill="none" xmlns="http://www.w3.org/2000/svg">
<path d="M21.5584 2.14018C21.224 2.2885 20.8802 2.41369 20.5289 2.51532C20.9448 2.04493 21.2619 1.49146 21.4555 0.885795C21.4989 0.750036 21.4539 0.601435 21.3423 0.512646C21.2309 0.423788 21.076 0.413144 20.9533 0.485865C20.2072 0.92837 19.4023 1.24638 18.5583 1.43234C17.7081 0.601573 16.5533 0.128784 15.3596 0.128784C12.8397 0.128784 10.7897 2.17877 10.7897 4.69852C10.7897 4.89698 10.8023 5.09434 10.8271 5.28894C7.70025 5.0144 4.79327 3.47751 2.79705 1.02883C2.72591 0.941555 2.61631 0.894516 2.50411 0.903512C2.39183 0.912302 2.29096 0.975615 2.23424 1.07292C1.82936 1.76765 1.61532 2.56222 1.61532 3.37067C1.61532 4.47178 2.00845 5.51651 2.7029 6.33286C2.49175 6.25972 2.28684 6.16832 2.09127 6.05976C1.98627 6.00132 1.85813 6.00221 1.75382 6.06202C1.64945 6.12183 1.584 6.23184 1.58126 6.35208C1.58078 6.37234 1.58078 6.3926 1.58078 6.41313C1.58078 8.05673 2.46538 9.53649 3.81782 10.343C3.70163 10.3314 3.58551 10.3146 3.47015 10.2925C3.35121 10.2698 3.22891 10.3115 3.14871 10.4022C3.06836 10.4928 3.04179 10.6192 3.0788 10.7346C3.5794 12.2975 4.86826 13.4471 6.42637 13.7976C5.13408 14.607 3.65624 15.0309 2.10486 15.0309C1.78115 15.0309 1.45559 15.0119 1.13697 14.9742C0.978684 14.9554 0.827336 15.0489 0.773431 15.1994C0.719525 15.35 0.776658 15.5179 0.911319 15.6042C2.90431 16.882 5.20879 17.5575 7.57548 17.5575C12.2281 17.5575 15.1387 15.3635 16.761 13.523C18.784 11.228 19.9442 8.19022 19.9442 5.18876C19.9442 5.06336 19.9423 4.93674 19.9384 4.81052C20.7366 4.20919 21.4238 3.48143 21.9829 2.64497C22.0679 2.51793 22.0587 2.35003 21.9603 2.23309C21.862 2.11608 21.6982 2.07824 21.5584 2.14018Z" fill="white"/>
</svg>
